<?xml version="1.0" standalone="no"?>
<!DOCTYPE svg PUBLIC "-//W3C//DTD SVG 1.1//EN" "http://www.w3.org/Graphics/SVG/1.1/DTD/svg11.dtd" >
<svg>
<metadata>
Created by FontForge 20120731 at Sat Jun 29 15:42:44 2019
 By www
Copyright (c) 2008 by Mark Simonson. All rights reserved.
</metadata>
<defs>
<font id="RefrigeratorDeluxeW01-Bold" horiz-adv-x="450" >
  <font-face 
    font-family="RefrigeratorDeluxeW01-Bold"
    font-weight="700"
    font-stretch="normal"
    units-per-em="1000"
    panose-1="2 1 8 6 2 2 2 5 2 3"
    ascent="775"
    descent="-225"
    x-height="470"
    cap-height="700"
    bbox="-100 -230 873 923"
    underline-thickness="90"
    underline-position="-105"
    unicode-range="U+000D-2122"
  />
<missing-glyph horiz-adv-x="0" 
 />
    <glyph glyph-name=".notdef" horiz-adv-x="0" 
 />
    <glyph glyph-name=".null" horiz-adv-x="0" 
 />
    <glyph glyph-name="uni000D" unicode="&#xd;" horiz-adv-x="200" 
 />
    <glyph glyph-name="space" unicode=" " horiz-adv-x="200" 
 />
    <glyph glyph-name="exclam" unicode="!" horiz-adv-x="200" 
d="M150 200h-100v500h100v-500zM160 50q0 -25 -17.5 -42.5t-42.5 -17.5t-42.5 17.5t-17.5 42.5t17.5 42.5t42.5 17.5t42.5 -17.5t17.5 -42.5z" />
    <glyph glyph-name="quotedbl" unicode="&#x22;" horiz-adv-x="351" 
d="M307 700l-37 -201h-48l-37 201h122zM166 700l-37 -201h-48l-37 201h122z" />
    <glyph glyph-name="numbersign" unicode="#" horiz-adv-x="533" 
d="M175 259h124l60 182h-124zM279 199h-124l-66 -199h-64l66 199h-71l20 60h71l60 182h-71l20 60h71l66 199h64l-66 -199h124l66 199h64l-66 -199h75l-20 -60h-75l-60 -182h75l-20 -60h-75l-66 -199h-64z" />
    <glyph glyph-name="dollar" unicode="$" 
d="M326 361q31 -16 52.5 -43.5t21.5 -61.5v-66q0 -42 -29 -71t-71 -29h-30v-90h-90v90h-30q-42 0 -71 29t-29 71v74h100v-74h150v61l-176 90q-31 16 -52.5 43.5t-21.5 61.5v64q0 42 29 71t71 29h30v90h90v-90h30q42 0 71 -29t29 -71v-71h-100v71h-150v-60z" />
    <glyph glyph-name="percent" unicode="%" horiz-adv-x="649" 
d="M275 416q0 -28 -19.5 -47.5t-48.5 -19.5h-89q-29 0 -48.5 19.5t-19.5 47.5v217q0 28 20 47.5t48 19.5h89q28 0 48 -19.5t20 -47.5v-217zM473 700l-232 -700h-64l232 700h64zM599 67q0 -28 -19.5 -47.5t-47.5 -19.5h-90q-28 0 -47.5 19.5t-19.5 47.5v217q0 28 19.5 47.5
t47.5 19.5h90q28 0 47.5 -19.5t19.5 -47.5v-217zM207 416v217h-89v-217h89zM532 67v217h-90v-217h90z" />
    <glyph glyph-name="ampersand" unicode="&#x26;" horiz-adv-x="600" 
d="M242 100l59 117l-105 104l-46 -47v-174h92zM376 143l-44 -87q-5 -9 -13.5 -19t-20.5 -18t-26 -13.5t-29 -5.5h-93q-42 0 -71 29t-29 71v174q0 23 7.5 39t21.5 30l46 47l-41 42q-14 14 -24 34.5t-10 40.5v93q0 42 29 71t71 29h150q42 0 71 -29t29 -71v-100h-100v100h-150
v-90l199 -198l55 108h112l-92 -182l175 -172l-72 -73z" />
    <glyph glyph-name="quotesingle" unicode="'" horiz-adv-x="200" 
d="M161 701l-37 -201h-48l-37 201h122z" />
    <glyph glyph-name="parenleft" unicode="(" horiz-adv-x="219" 
d="M143 -151q-106 175 -106 476q0 300 106 475h64q-80 -180 -80 -475q0 -296 80 -476h-64z" />
    <glyph glyph-name="parenright" unicode=")" horiz-adv-x="219" 
d="M182 325q0 -301 -106 -476h-64q80 180 80 476q0 295 -80 475h64q106 -175 106 -475z" />
    <glyph glyph-name="asterisk" unicode="*" horiz-adv-x="320" 
d="M185 512l14 -102h-78l14 102l-81 -63l-39 67l95 39l-95 39l39 67l81 -64l-14 103h78l-14 -102l81 63l39 -67l-97 -39l97 -39l-39 -67z" />
    <glyph glyph-name="plus" unicode="+" horiz-adv-x="448" 
d="M424 190h-158v-154h-90v154h-152v90h152v156h90v-156h158v-90z" />
    <glyph glyph-name="comma" unicode="," horiz-adv-x="200" 
d="M160 52q0 -12 -8 -30l-56 -122h-48l30 96q-38 14 -38 54q0 25 17.5 42.5t42.5 17.5q24 0 42 -17t18 -41z" />
    <glyph glyph-name="hyphen" unicode="-" horiz-adv-x="261" 
d="M236 190h-211v90h211v-90z" />
    <glyph glyph-name="period" unicode="." horiz-adv-x="200" 
d="M160 50q0 -25 -17.5 -42.5t-42.5 -17.5t-42.5 17.5t-17.5 42.5t17.5 42.5t42.5 17.5t42.5 -17.5t17.5 -42.5z" />
    <glyph glyph-name="slash" unicode="/" horiz-adv-x="295" 
d="M295 800l-231 -951h-64l232 951h63z" />
    <glyph glyph-name="zero" unicode="0" 
d="M400 100q0 -42 -29 -71t-71 -29h-150q-42 0 -71 29t-29 71v500q0 42 29 71t71 29h150q42 0 71 -29t29 -71v-500zM300 100v500h-150v-500h150z" />
    <glyph glyph-name="one" unicode="1" horiz-adv-x="362" 
d="M337 0h-300v100h100v500h-100v100h200v-600h100v-100z" />
    <glyph glyph-name="two" unicode="2" 
d="M300 511v89h-150v-100h-100v100q0 42 29 71t71 29h150q42 0 71 -29t29 -71v-89q0 -16 -4.5 -31t-12.5 -26l-233 -298v-56h250v-100h-350v156q0 16 4.5 31t12.5 26z" />
    <glyph glyph-name="three" unicode="3" 
d="M400 100q0 -42 -29 -71t-71 -29h-150q-42 0 -71 29t-29 71v100h100v-100h150v220h-150v100h150v180h-150v-100h-100v100q0 42 29 71t71 29h150q42 0 71 -29t29 -71v-154q0 -57 -50 -77q50 -18 50 -77v-192z" />
    <glyph glyph-name="four" unicode="4" horiz-adv-x="449" 
d="M412 150h-50v-150h-100v150h-225v100l225 450h100v-450h50v-100zM262 250v261l-126 -261h126z" />
    <glyph glyph-name="five" unicode="5" 
d="M400 100q0 -42 -29 -71t-71 -29h-150q-42 0 -71 29t-29 71v100h100v-100h150v270h-150v-50h-100v380h340v-100h-240v-180q20 50 78 50h72q42 0 71 -29t29 -71v-270z" />
    <glyph glyph-name="six" unicode="6" 
d="M400 100q0 -42 -29 -71t-71 -29h-150q-42 0 -71 29t-29 71v500q0 42 29 71t71 29h150q42 0 71 -29t29 -71v-100h-100v100h-150v-230q20 50 78 50h72q42 0 71 -29t29 -71v-220zM300 100v220h-150v-220h150z" />
    <glyph glyph-name="seven" unicode="7" horiz-adv-x="412" 
d="M375 600l-140 -600h-110l146 600h-146v-100h-100v200h350v-100z" />
    <glyph glyph-name="eight" unicode="8" 
d="M400 100q0 -42 -29 -71t-71 -29h-150q-42 0 -71 29t-29 71v193q0 57 50 77q-50 20 -50 77v153q0 42 29 71t71 29h150q42 0 71 -29t29 -71v-153q0 -57 -50 -77q50 -20 50 -77v-193zM300 420v180h-150v-180h150zM300 100v220h-150v-220h150z" />
    <glyph glyph-name="nine" unicode="9" 
d="M400 100q0 -42 -29 -71t-71 -29h-150q-42 0 -71 29t-29 71v100h100v-100h150v230q-18 -50 -77 -50h-73q-42 0 -71 29t-29 71v220q0 42 29 71t71 29h150q42 0 71 -29t29 -71v-500zM300 380v220h-150v-220h150z" />
    <glyph glyph-name="colon" unicode=":" horiz-adv-x="200" 
d="M160 410q0 -25 -17.5 -42.5t-42.5 -17.5t-42.5 17.5t-17.5 42.5t17.5 42.5t42.5 17.5t42.5 -17.5t17.5 -42.5zM160 50q0 -25 -17.5 -42.5t-42.5 -17.5t-42.5 17.5t-17.5 42.5t17.5 42.5t42.5 17.5t42.5 -17.5t17.5 -42.5z" />
    <glyph glyph-name="semicolon" unicode=";" horiz-adv-x="200" 
d="M160 52q0 -12 -8 -30l-56 -122h-48l30 96q-38 14 -38 54q0 25 17.5 42.5t42.5 17.5q24 0 42 -17t18 -41zM160 410q0 -25 -17.5 -42.5t-42.5 -17.5t-42.5 17.5t-17.5 42.5t17.5 42.5t42.5 17.5t42.5 -17.5t17.5 -42.5z" />
    <glyph glyph-name="less" unicode="&#x3c;" 
d="M103 233l322 -110v-96l-400 141v133l400 141v-96z" />
    <glyph glyph-name="equal" unicode="=" 
d="M425 280h-400v90h400v-90zM425 100h-400v90h400v-90z" />
    <glyph glyph-name="greater" unicode="&#x3e;" 
d="M25 123l322 112l-322 111v96l400 -141v-133l-400 -141v96z" />
    <glyph glyph-name="question" unicode="?" 
d="M400 516q0 -48 -49 -97l-115 -115l52 -54l-72 -72l-54 52q-26 26 -26 67q0 47 30 77l134 134v92h-150v-100h-100v100q0 42 29 71t71 29h150q42 0 71 -29t29 -71v-84zM286 50q0 -25 -17.5 -42.5t-42.5 -17.5t-42.5 17.5t-17.5 42.5t17.5 42.5t42.5 17.5t42.5 -17.5
t17.5 -42.5z" />
    <glyph glyph-name="at" unicode="@" horiz-adv-x="563" 
d="M338 380h-120v-290h120v290zM403 0q-20 0 -32 7t-20 16q-9 10 -13 23q-4 -13 -14 -23q-8 -9 -22 -16t-36 -7h-48q-38 0 -64 26t-26 64v290q0 38 26 64t64 26h48q22 0 36 -7.5t22 -15.5q10 -11 14 -23v46h90v-425h45v317q0 40 -15 74.5t-41 60.5t-60.5 41t-74.5 15
t-74.5 -15t-60.5 -41t-41 -60.5t-15 -74.5v-252q0 -40 15 -74.5t41 -60.5t60.5 -41t74.5 -15q26 0 51 7t45 19l21 -35q-25 -15 -55 -23.5t-62 -8.5q-48 0 -90.5 18t-74 49.5t-49.5 74t-18 90.5v252q0 48 18 90t49.5 73.5t74 50t90.5 18.5t90 -18.5t73.5 -50t49.5 -73.5
t18 -90v-317q0 -19 -10.5 -32t-29.5 -13h-70z" />
    <glyph glyph-name="A" unicode="A" 
d="M438 0h-106l-20 100h-174l-20 -100h-106l150 700h126zM292 200l-65 326l-69 -326h134z" />
    <glyph glyph-name="B" unicode="B" horiz-adv-x="451" 
d="M401 100q0 -42 -29 -71t-71 -29h-250v700h250q42 0 71 -29t29 -71v-153q0 -57 -50 -77q50 -20 50 -77v-193zM301 420v180h-150v-180h150zM301 100v220h-150v-220h150z" />
    <glyph glyph-name="C" unicode="C" 
d="M400 100q0 -42 -29 -71t-71 -29h-150q-42 0 -71 29t-29 71v500q0 42 29 71t71 29h150q42 0 71 -29t29 -71v-100h-100v100h-150v-500h150v100h100v-100z" />
    <glyph glyph-name="D" unicode="D" 
d="M400 100q0 -42 -29 -71t-71 -29h-250v700h250q42 0 71 -29t29 -71v-500zM300 100v500h-150v-500h150z" />
    <glyph glyph-name="E" unicode="E" horiz-adv-x="387" 
d="M350 0h-300v700h300v-100h-200v-180h150v-100h-150v-220h200v-100z" />
    <glyph glyph-name="F" unicode="F" horiz-adv-x="375" 
d="M350 600h-200v-180h150v-100h-150v-320h-100v700h300v-100z" />
    <glyph glyph-name="G" unicode="G" 
d="M400 100q0 -42 -29 -71t-71 -29h-150q-42 0 -71 29t-29 71v500q0 42 29 71t71 29h150q42 0 71 -29t29 -71v-100h-100v100h-150v-500h150v170h-75v100h175v-270z" />
    <glyph glyph-name="H" unicode="H" 
d="M400 0h-100v320h-150v-320h-100v700h100v-280h150v280h100v-700z" />
    <glyph glyph-name="I" unicode="I" horiz-adv-x="200" 
d="M150 0h-100v700h100v-700z" />
    <glyph glyph-name="J" unicode="J" horiz-adv-x="400" 
d="M350 100q0 -42 -29 -71t-71 -29h-125q-42 0 -71 29t-29 71v100h100v-100h125v600h100v-600z" />
    <glyph glyph-name="K" unicode="K" 
d="M450 0h-114l-120 279l-66 -128v-151h-100v700h100v-358l182 358h106l-166 -324z" />
    <glyph glyph-name="L" unicode="L" horiz-adv-x="375" 
d="M350 0h-300v700h100v-600h200v-100z" />
    <glyph glyph-name="M" unicode="M" horiz-adv-x="568" 
d="M518 0h-100v444l-118 -444h-32l-118 444v-444h-100v700h126l108 -412l108 412h126v-700z" />
    <glyph glyph-name="N" unicode="N" 
d="M400 0h-88l-162 458v-458h-100v700h108l142 -412v412h100v-700z" />
    <glyph glyph-name="O" unicode="O" 
d="M400 100q0 -42 -29 -71t-71 -29h-150q-42 0 -71 29t-29 71v500q0 42 29 71t71 29h150q42 0 71 -29t29 -71v-500zM300 100v500h-150v-500h150z" />
    <glyph glyph-name="P" unicode="P" horiz-adv-x="437" 
d="M400 380q0 -21 -8 -39t-21.5 -31.5t-31.5 -21.5t-39 -8h-150v-280h-100v700h250q42 0 71 -29t29 -71v-220zM300 380v220h-150v-220h150z" />
    <glyph glyph-name="Q" unicode="Q" 
d="M400 100q0 -42 -29 -71t-71 -29h-25v-50h50v-100h-50q-42 0 -71 29t-29 71v50h-25q-42 0 -71 29t-29 71v500q0 42 29 71t71 29h150q42 0 71 -29t29 -71v-500zM300 100v500h-150v-500h150z" />
    <glyph glyph-name="R" unicode="R" 
d="M400 0h-106l-66 280h-78v-280h-100v700h250q42 0 71 -29t29 -71v-220q0 -82 -79 -95zM300 380v220h-150v-220h150z" />
    <glyph glyph-name="S" unicode="S" 
d="M352 309q48 -47 48 -106v-103q0 -42 -29 -71t-71 -29h-150q-42 0 -71 29t-29 71v100h100v-100h150v116l-202 201q-48 47 -48 106v77q0 42 29 71t71 29h150q42 0 71 -29t29 -71v-100h-100v100h-150v-90z" />
    <glyph glyph-name="T" unicode="T" horiz-adv-x="400" 
d="M375 600h-125v-600h-100v600h-125v100h350v-100z" />
    <glyph glyph-name="U" unicode="U" 
d="M400 100q0 -42 -29 -71t-71 -29h-150q-42 0 -71 29t-29 71v600h100v-600h150v600h100v-600z" />
    <glyph glyph-name="V" unicode="V" horiz-adv-x="448" 
d="M436 700l-150 -700h-124l-150 700h111l101 -543l101 543h111z" />
    <glyph glyph-name="W" unicode="W" horiz-adv-x="654" 
d="M642 700l-120 -700h-119l-76 456l-76 -456h-119l-120 700h108l81 -528l80 528h93l79 -528l82 528h107z" />
    <glyph glyph-name="X" unicode="X" horiz-adv-x="448" 
d="M446 0h-119l-103 278l-103 -278h-119l160 366l-144 334h115l91 -246l91 246h115l-144 -334z" />
    <glyph glyph-name="Y" unicode="Y" horiz-adv-x="400" 
d="M400 700l-151 -430v-270h-100v270l-149 430h110l90 -320l90 320h110z" />
    <glyph glyph-name="Z" unicode="Z" horiz-adv-x="432" 
d="M395 0h-358v100l236 500h-228v100h342v-100l-236 -500h244v-100z" />
    <glyph glyph-name="bracketleft" unicode="[" horiz-adv-x="245" 
d="M220 -151h-170v951h170v-64h-107v-823h107v-64z" />
    <glyph glyph-name="backslash" unicode="\" horiz-adv-x="295" 
d="M295 -151h-64l-231 951h63z" />
    <glyph glyph-name="bracketright" unicode="]" horiz-adv-x="245" 
d="M195 -151h-170v64h107v823h-107v64h170v-951z" />
    <glyph glyph-name="asciicircum" unicode="^" horiz-adv-x="300" 
d="M275 555l-44 -44l-81 81l-81 -81l-44 44l125 125z" />
    <glyph glyph-name="underscore" unicode="_" 
d="M450 -90h-450v90h450v-90z" />
    <glyph glyph-name="grave" unicode="`" horiz-adv-x="400" 
d="M285 568l-44 -44l-125 125l44 44z" />
    <glyph glyph-name="a" unicode="a" horiz-adv-x="390" 
d="M340 0h-90v38q-5 -19 -25 -28.5t-34 -9.5h-59q-18 0 -35 7t-29.5 19.5t-20 29t-7.5 34.5v110q0 42 26 66t64 24h61q48 0 59 -38v128h-176v90h176q38 0 64 -26t26 -64v-380zM250 90v110h-119v-110h119z" />
    <glyph glyph-name="b" unicode="b" horiz-adv-x="400" 
d="M350 90q0 -18 -7 -34.5t-19 -29t-28.5 -19.5t-35.5 -7h-48q-56 0 -72 46v-46h-90v700h90v-276q16 46 72 46h48q38 0 64 -26t26 -64v-290zM260 90v290h-120v-290h120z" />
    <glyph glyph-name="c" unicode="c" horiz-adv-x="400" 
d="M350 90q0 -18 -7 -34.5t-19 -29t-28.5 -19.5t-35.5 -7h-120q-37 0 -63.5 26.5t-26.5 63.5v290q0 19 7 35.5t19.5 28.5t29 19t34.5 7h120q38 0 64 -26t26 -64v-90h-90v90h-120v-290h120v90h90v-90z" />
    <glyph glyph-name="d" unicode="d" horiz-adv-x="400" 
d="M350 0h-90v46q-16 -46 -72 -46h-48q-37 0 -63.5 26.5t-26.5 63.5v290q0 19 7 35.5t19.5 28.5t29 19t34.5 7h48q56 0 72 -46v276h90v-700zM260 90v290h-120v-290h120z" />
    <glyph glyph-name="e" unicode="e" horiz-adv-x="400" 
d="M350 180h-210v-90h177v-90h-177q-37 0 -63.5 26.5t-26.5 63.5v290q0 19 7 35.5t19.5 28.5t29 19t34.5 7h120q38 0 64 -26t26 -64v-200zM260 270v110h-120v-110h120z" />
    <glyph glyph-name="f" unicode="f" horiz-adv-x="290" 
d="M265 380h-90v-380h-90v380h-70v90h70v140q0 19 7 35.5t19.5 28.5t29 19t34.5 7h90v-90h-90v-140h90v-90z" />
    <glyph glyph-name="g" unicode="g" horiz-adv-x="400" 
d="M350 -60q0 -18 -7 -34.5t-19.5 -28.5t-29 -19.5t-34.5 -7.5h-154v90h154v106q-16 -46 -72 -46h-48q-37 0 -63.5 26.5t-26.5 63.5v290q0 37 26.5 63.5t63.5 26.5h48q56 0 72 -46v46h90v-530zM260 90v290h-120v-290h120z" />
    <glyph glyph-name="h" unicode="h" horiz-adv-x="400" 
d="M350 0h-90v380h-120v-380h-90v700h90v-276q16 46 72 46h48q38 0 64 -26t26 -64v-380z" />
    <glyph glyph-name="i" unicode="i" horiz-adv-x="190" 
d="M156 608q0 -25 -17.5 -42.5t-42.5 -17.5t-42.5 17.5t-17.5 42.5t17.5 42.5t42.5 17.5t42.5 -17.5t17.5 -42.5zM140 0h-90v470h90v-470z" />
    <glyph glyph-name="j" unicode="j" horiz-adv-x="190" 
d="M156 608q0 -25 -17.5 -42.5t-42.5 -17.5t-42.5 17.5t-17.5 42.5t17.5 42.5t42.5 17.5t42.5 -17.5t17.5 -42.5zM140 -60q0 -18 -7 -34.5t-19.5 -28.5t-29 -19.5t-34.5 -7.5h-90v90h90v530h90v-530z" />
    <glyph glyph-name="k" unicode="k" horiz-adv-x="360" 
d="M360 0h-100l-68 190l-52 -90v-100h-90v700h90v-448l120 218h96l-110 -194z" />
    <glyph glyph-name="l" unicode="l" horiz-adv-x="190" 
d="M140 0h-90v700h90v-700z" />
    <glyph glyph-name="m" unicode="m" horiz-adv-x="580" 
d="M530 0h-90v380h-105v-380h-90v380h-105v-380h-90v470h90v-46q16 46 72 46h41q56 0 72 -46q16 46 72 46h43q38 0 64 -26t26 -64v-380z" />
    <glyph glyph-name="n" unicode="n" horiz-adv-x="400" 
d="M350 0h-90v380h-120v-380h-90v470h90v-46q16 46 72 46h48q38 0 64 -26t26 -64v-380z" />
    <glyph glyph-name="o" unicode="o" horiz-adv-x="400" 
d="M350 90q0 -18 -7 -34.5t-19 -29t-28.5 -19.5t-35.5 -7h-120q-37 0 -63.5 26.5t-26.5 63.5v290q0 19 7 35.5t19.5 28.5t29 19t34.5 7h120q38 0 64 -26t26 -64v-290zM260 90v290h-120v-290h120z" />
    <glyph glyph-name="p" unicode="p" horiz-adv-x="400" 
d="M350 90q0 -37 -26.5 -63.5t-63.5 -26.5h-48q-56 0 -72 46v-196h-90v620h90v-46q16 46 72 46h48q37 0 63.5 -26.5t26.5 -63.5v-290zM260 90v290h-120v-290h120z" />
    <glyph glyph-name="q" unicode="q" horiz-adv-x="400" 
d="M350 -150h-90v196q-16 -46 -72 -46h-48q-37 0 -63.5 26.5t-26.5 63.5v290q0 37 26.5 63.5t63.5 26.5h48q56 0 72 -46v46h90v-620zM260 90v290h-120v-290h120z" />
    <glyph glyph-name="r" unicode="r" horiz-adv-x="272" 
d="M260 380h-120v-380h-90v470h90v-46q16 46 72 46h48v-90z" />
    <glyph glyph-name="s" unicode="s" horiz-adv-x="400" 
d="M350 90q0 -18 -7 -34.5t-19 -29t-28.5 -19.5t-35.5 -7h-120q-37 0 -63.5 26.5t-26.5 63.5v70h90v-70h120v70l-140 66q-70 33 -70 90v64q0 19 7 35.5t19.5 28.5t29 19t34.5 7h120q38 0 64 -26t26 -64v-70h-90v70h-120v-60l128 -60q82 -37 82 -92v-78z" />
    <glyph glyph-name="t" unicode="t" horiz-adv-x="290" 
d="M265 0h-90q-37 0 -63.5 26.5t-26.5 63.5v290h-70v90h70v140h90v-140h90v-90h-90v-290h90v-90z" />
    <glyph glyph-name="u" unicode="u" horiz-adv-x="400" 
d="M350 0h-90v46q-16 -46 -72 -46h-48q-37 0 -63.5 26.5t-26.5 63.5v380h90v-380h120v380h90v-470z" />
    <glyph glyph-name="v" unicode="v" horiz-adv-x="376" 
d="M364 470l-118 -470h-116l-118 470h96l80 -356l80 356h96z" />
    <glyph glyph-name="w" unicode="w" horiz-adv-x="532" 
d="M520 470l-98 -470h-102l-54 272l-54 -272h-102l-98 470h96l60 -328l62 328h72l62 -328l60 328h96z" />
    <glyph glyph-name="x" unicode="x" horiz-adv-x="376" 
d="M364 0h-101l-75 175l-76 -175h-100l116 232l-116 238h100l76 -177l75 177h101l-116 -238z" />
    <glyph glyph-name="y" unicode="y" horiz-adv-x="376" 
d="M364 470l-174 -620h-96l46 150l-128 470h96l80 -336l80 336h96z" />
    <glyph glyph-name="z" unicode="z" horiz-adv-x="350" 
d="M325 0h-300v90l184 290h-176v90h286v-90l-184 -290h190v-90z" />
    <glyph glyph-name="braceleft" unicode="{" horiz-adv-x="258" 
d="M139 -87h107v-64h-107q-26 0 -44.5 19t-18.5 45v380h-64v64h64v379q0 26 18.5 45t44.5 19h107v-64h-107v-359q0 -22 -11 -35t-26 -17q15 -4 26 -17.5t11 -35.5v-359z" />
    <glyph glyph-name="bar" unicode="|" horiz-adv-x="140" 
d="M88 -200h-38v1000h38v-1000z" />
    <glyph glyph-name="braceright" unicode="}" horiz-adv-x="258" 
d="M119 272q0 22 11 35t26 17q-15 4 -26 17.5t-11 35.5v359h-107v64h107q26 0 44.5 -19t18.5 -45v-379h64v-64h-64v-380q0 -26 -18.5 -45t-44.5 -19h-107v64h107v359z" />
    <glyph glyph-name="asciitilde" unicode="~" horiz-adv-x="335" 
d="M25 575l54 54q18 18 44 18t44 -18l46 -45l54 54l43 -44l-54 -54q-18 -18 -44 -18t-44 18l-46 45l-53 -53z" />
    <glyph glyph-name="uni00A0" unicode="&#xa0;" horiz-adv-x="200" 
 />
    <glyph glyph-name="exclamdown" unicode="&#xa1;" horiz-adv-x="200" 
d="M160 420q0 -25 -17.5 -42.5t-42.5 -17.5t-42.5 17.5t-17.5 42.5t17.5 42.5t42.5 17.5t42.5 -17.5t17.5 -42.5zM150 -230h-100v500h100v-500z" />
    <glyph glyph-name="cent" unicode="&#xa2;" 
d="M150 190h150v89h100v-89q0 -42 -29 -71t-71 -29h-30v-90h-90v90h-30q-42 0 -71 29t-29 71v320q0 42 29 71t71 29h30v90h90v-90h30q42 0 71 -29t29 -71v-86h-100v86h-150v-320z" />
    <glyph glyph-name="sterling" unicode="&#xa3;" horiz-adv-x="468" 
d="M428 100q0 -42 -29 -71t-71 -29h-303v100h53v220h-50v100h50v180q0 42 29 71t71 29h100q42 0 71 -29t29 -71v-100h-100v100h-100v-180h100v-100h-100v-220h150v100h100v-100z" />
    <glyph glyph-name="currency" unicode="&#xa4;" horiz-adv-x="549" 
d="M499 481l-79 -79q3 -11 3 -22v-120q0 -14 -3 -24l76 -76l-64 -63l-76 76q-11 -3 -23 -3h-120h-12t-11 2l-74 -74l-64 64l74 74q-3 10 -3 24v120q0 11 3 23l-76 76l63 64l76 -76q12 3 24 3h120q12 0 24 -3l78 78zM333 260v120h-120v-120h120z" />
    <glyph glyph-name="yen" unicode="&#xa5;" horiz-adv-x="442" 
d="M25 410h96l-100 290h110l90 -320l90 320h110l-102 -290h98v-80h-126l-21 -60v-40h147v-80h-147v-150h-100v150h-145v80h145v40l-21 60h-124v80z" />
    <glyph glyph-name="brokenbar" unicode="&#xa6;" horiz-adv-x="140" 
d="M50 -200v400h38v-400h-38zM88 400h-38v400h38v-400z" />
    <glyph glyph-name="section" unicode="&#xa7;" horiz-adv-x="400" 
d="M350 320q0 -54 -48 -79q25 -19 25 -73v-78q0 -18 -7 -34.5t-19 -29t-28.5 -19.5t-35.5 -7h-74q-37 0 -63.5 26.5t-26.5 63.5v70h90v-70h74v82l-117 54q-70 31 -70 90v64q0 61 57 84q-34 25 -34 82v64q0 19 7 35.5t19.5 28.5t29 19t34.5 7h74q38 0 64 -26t26 -64v-70h-90
v70h-74v-69l105 -51q82 -40 82 -92v-78zM260 265v125l-120 58v-128z" />
    <glyph glyph-name="dieresis" unicode="&#xa8;" horiz-adv-x="400" 
d="M340 608q0 -25 -17.5 -42.5t-42.5 -17.5t-42.5 17.5t-17.5 42.5t17.5 42.5t42.5 17.5t42.5 -17.5t17.5 -42.5zM180 608q0 -25 -17.5 -42.5t-42.5 -17.5t-42.5 17.5t-17.5 42.5t17.5 42.5t42.5 17.5t42.5 -17.5t17.5 -42.5z" />
    <glyph glyph-name="copyright" unicode="&#xa9;" horiz-adv-x="797" 
d="M716 350q0 66 -25 124t-68 101t-101 68t-124 25t-123.5 -25t-101 -68t-68.5 -101t-25 -124t25 -124t68.5 -101t101 -68t123.5 -25t124 25t101 68t68 101t25 124zM757 350q0 -74 -28.5 -139.5t-77 -114.5t-114 -77t-139.5 -28t-139.5 28t-114 77t-76.5 114.5t-28 139.5
t28 139.5t76.5 114t114 77t139.5 28.5t139.5 -28.5t114 -77t77 -114t28.5 -139.5zM556 210q0 -26 -18.5 -45t-45.5 -19h-186q-26 0 -45 19t-19 45v280q0 26 19 45t45 19h186q27 0 45.5 -19t18.5 -45v-64h-64v64h-186v-280h186v64h64v-64z" />
    <glyph glyph-name="ordfeminine" unicode="&#xaa;" horiz-adv-x="375" 
d="M50 195h275v-85h-275v85zM240 460h-104v-95h104v95zM240 280v38q-3 -11 -11 -19q-7 -8 -18.5 -13.5t-29.5 -5.5h-39q-18 0 -35 7t-29.5 19.5t-20 29t-7.5 34.5v85q0 42 26.5 66t63.5 24h41q18 0 29.5 -6t18.5 -13q8 -9 11 -19v108h-145v85h140q38 0 64 -26t26 -64v-330
h-85z" />
    <glyph glyph-name="guillemotleft" unicode="&#xab;" horiz-adv-x="388" 
d="M363 154l-44 -44l-125 125l125 125l44 -44l-81 -81zM194 154l-44 -44l-125 125l125 125l44 -44l-81 -81z" />
    <glyph glyph-name="logicalnot" unicode="&#xac;" 
d="M425 100h-90v180h-310v90h400v-270z" />
    <glyph glyph-name="uni00AD" unicode="&#xad;" horiz-adv-x="261" 
d="M236 190h-211v90h211v-90z" />
    <glyph glyph-name="registered" unicode="&#xae;" horiz-adv-x="438" 
d="M364 529q0 30 -11.5 57t-31 46.5t-46 31t-56.5 11.5t-56.5 -11.5t-46 -31t-31 -46.5t-11.5 -57t11.5 -56.5t31 -46t46 -31t56.5 -11.5t56.5 11.5t46 31t31 46t11.5 56.5zM398 529q0 -37 -14 -69.5t-38.5 -57t-57 -38.5t-69.5 -14t-69.5 14t-57 38.5t-38.5 57t-14 69.5
t14 70t38.5 57.5t57 38.5t69.5 14t69.5 -14t57 -38.5t38.5 -57.5t14 -70zM300 430h-45l-46 65h-28v-65h-42v199h133q28 0 28 -28v-77q0 -29 -28 -29h-17zM258 538v49h-77v-49h77z" />
    <glyph glyph-name="macron" unicode="&#xaf;" horiz-adv-x="400" 
d="M317 577h-233v62h233v-62z" />
    <glyph glyph-name="degree" unicode="&#xb0;" horiz-adv-x="253" 
d="M228 611q0 -21 -8 -39.5t-21.5 -32t-32 -21.5t-39.5 -8t-39.5 8t-32.5 21.5t-22 32t-8 39.5t8 39.5t22 32.5t32.5 22t39.5 8t39.5 -8t32 -22t21.5 -32.5t8 -39.5zM181 611q0 23 -15.5 38.5t-38.5 15.5q-22 0 -38 -15.5t-16 -38.5q0 -22 16 -38t38 -16q23 0 38.5 16
t15.5 38z" />
    <glyph glyph-name="plusminus" unicode="&#xb1;" horiz-adv-x="448" 
d="M24 90h152v135h-152v90h152v156h90v-156h158v-90h-158v-135h158v-90h-400v90z" />
    <glyph glyph-name="uni00B2" unicode="&#xb2;" horiz-adv-x="310" 
d="M195 589v41h-80v-49h-70v59q0 25 17.5 42.5t42.5 17.5h100q25 0 42.5 -17.5t17.5 -42.5v-51q0 -16 -4 -26.5t-12 -20.5l-134 -172v-20h150v-70h-220v90q0 16 4 26.5t12 20.5z" />
    <glyph glyph-name="uni00B3" unicode="&#xb3;" horiz-adv-x="310" 
d="M265 340q0 -25 -17.5 -42.5t-42.5 -17.5h-100q-25 0 -42.5 17.5t-17.5 42.5v65h70v-55h80v117h-90v70h90v93h-80v-55h-70v65q0 25 17.5 42.5t42.5 17.5h100q25 0 42.5 -17.5t17.5 -42.5v-92q0 -35 -30 -47q30 -11 30 -46v-115z" />
    <glyph glyph-name="acute" unicode="&#xb4;" horiz-adv-x="400" 
d="M285 649l-125 -125l-44 44l125 125z" />
    <glyph glyph-name="mu" unicode="&#xb5;" horiz-adv-x="400" 
d="M140 -150h-90v620h90v-380h120v380h90v-470h-90v46q-16 -46 -72 -46t-72 46l24 -111v-85z" />
    <glyph glyph-name="paragraph" unicode="&#xb6;" horiz-adv-x="437" 
d="M334 662v-813h-38v813h-63v-813h-38v512q-35 0 -66 13.5t-54 36.5t-36.5 54t-13.5 66t13.5 65.5t36.5 53.5t54 36.5t66 13.5h217v-38h-78z" />
    <glyph glyph-name="periodcentered" unicode="&#xb7;" horiz-adv-x="200" 
d="M160 242q0 -25 -17.5 -42.5t-42.5 -17.5t-42.5 17.5t-17.5 42.5t17.5 42.5t42.5 17.5t42.5 -17.5t17.5 -42.5z" />
    <glyph glyph-name="cedilla" unicode="&#xb8;" horiz-adv-x="400" 
d="M274 -93q0 -25 -18 -43.5t-43 -18.5h-87v62h86v28h-61v70h62v-35h61v-63z" />
    <glyph glyph-name="uni00B9" unicode="&#xb9;" horiz-adv-x="266" 
d="M233 280h-200v70h65v280h-65v70h135v-350h65v-70z" />
    <glyph glyph-name="ordmasculine" unicode="&#xba;" horiz-adv-x="375" 
d="M50 195h275v-85h-275v85zM240 615h-105v-250h105v250zM325 370q0 -38 -26 -64t-64 -26h-95q-38 0 -64 26t-26 64v240q0 38 26 64t64 26h95q38 0 64 -26t26 -64v-240z" />
    <glyph glyph-name="guillemotright" unicode="&#xbb;" horiz-adv-x="388" 
d="M363 235l-125 -125l-44 44l81 81l-81 81l44 44zM194 235l-125 -125l-44 44l81 81l-81 81l44 44z" />
    <glyph glyph-name="onequarter" unicode="&#xbc;" horiz-adv-x="623" 
d="M233 280h-200v70h65v280h-65v70h135v-350h65v-70zM462 700l-232 -700h-64l232 700h64zM590 85h-30v-85h-70v85h-135v70l133 265h72v-265h30v-70zM490 155v140l-66 -140h66z" />
    <glyph glyph-name="onehalf" unicode="&#xbd;" horiz-adv-x="672" 
d="M233 280h-200v70h65v280h-65v70h135v-350h65v-70zM462 700l-232 -700h-64l232 700h64zM557 309v41h-80v-49h-70v59q0 25 17.5 42.5t42.5 17.5h100q25 0 42.5 -17.5t17.5 -42.5v-51q0 -16 -4 -26.5t-12 -20.5l-134 -172v-20h150v-70h-220v90q0 16 4 26.5t12 20.5z" />
    <glyph glyph-name="threequarters" unicode="&#xbe;" horiz-adv-x="667" 
d="M265 340q0 -25 -17.5 -42.5t-42.5 -17.5h-100q-25 0 -42.5 17.5t-17.5 42.5v65h70v-55h80v117h-90v70h90v93h-80v-55h-70v65q0 25 17.5 42.5t42.5 17.5h100q25 0 42.5 -17.5t17.5 -42.5v-92q0 -35 -30 -47q30 -11 30 -46v-115zM506 700l-232 -700h-64l232 700h64zM634 85
h-30v-85h-70v85h-135v70l133 265h72v-265h30v-70zM534 155v140l-66 -140h66z" />
    <glyph glyph-name="questiondown" unicode="&#xbf;" 
d="M284 420q0 -25 -17.5 -42.5t-42.5 -17.5t-42.5 17.5t-17.5 42.5t17.5 42.5t42.5 17.5t42.5 -17.5t17.5 -42.5zM400 -130q0 -42 -29 -71t-71 -29h-150q-42 0 -71 29t-29 71v84q0 48 49 97l115 115l-52 54l72 72l54 -52q26 -26 26 -67q0 -47 -30 -77l-134 -134v-92h150v100
h100v-100z" />
    <glyph glyph-name="Agrave" unicode="&#xc0;" 
d="M438 0h-106l-20 100h-174l-20 -100h-106l150 700h126zM292 200l-65 326l-69 -326h134zM320 798l-44 -44l-125 125l44 44z" />
    <glyph glyph-name="Aacute" unicode="&#xc1;" 
d="M438 0h-106l-20 100h-174l-20 -100h-106l150 700h126zM292 200l-65 326l-69 -326h134zM310 879l-125 -125l-44 44l125 125z" />
    <glyph glyph-name="Acircumflex" unicode="&#xc2;" 
d="M438 0h-106l-20 100h-174l-20 -100h-106l150 700h126zM292 200l-65 326l-69 -326h134zM350 798l-44 -44l-81 81l-81 -81l-44 44l125 125z" />
    <glyph glyph-name="Atilde" unicode="&#xc3;" 
d="M438 0h-106l-20 100h-174l-20 -100h-106l150 700h126zM292 200l-65 326l-69 -326h134zM83 828l54 54q18 18 44 18t44 -18l46 -45l54 54l43 -44l-54 -54q-18 -18 -44 -18t-44 18l-46 45l-53 -53z" />
    <glyph glyph-name="Adieresis" unicode="&#xc4;" 
d="M438 0h-106l-20 100h-174l-20 -100h-106l150 700h126zM292 200l-65 326l-69 -326h134zM365 838q0 -25 -17.5 -42.5t-42.5 -17.5t-42.5 17.5t-17.5 42.5t17.5 42.5t42.5 17.5t42.5 -17.5t17.5 -42.5zM205 838q0 -25 -17.5 -42.5t-42.5 -17.5t-42.5 17.5t-17.5 42.5
t17.5 42.5t42.5 17.5t42.5 -17.5t17.5 -42.5z" />
    <glyph glyph-name="Aring" unicode="&#xc5;" 
d="M438 0h-106l-20 100h-174l-20 -100h-106l150 700h126zM292 200l-65 326l-69 -326h134zM309 827q0 -35 -24 -59.5t-59 -24.5t-59.5 24.5t-24.5 59.5t24.5 59t59.5 24t59 -24t24 -59zM262 827q0 14 -11 24.5t-25 10.5t-24.5 -10.5t-10.5 -24.5t10.5 -25t24.5 -11t25 11
t11 25z" />
    <glyph glyph-name="AE" unicode="&#xc6;" horiz-adv-x="655" 
d="M630 0h-300v100h-174l-40 -100h-116l307 700h323v-100h-200v-180h150v-100h-150v-220h200v-100zM330 200v326l-134 -326h134z" />
    <glyph glyph-name="Ccedilla" unicode="&#xc7;" 
d="M299 -93q0 -25 -18 -43.5t-43 -18.5h-87v62h86v28h-61v65h-26q-42 0 -71 29t-29 71v500q0 42 29 71t71 29h150q42 0 71 -29t29 -71v-100h-100v100h-150v-500h150v100h100v-100q0 -42 -29 -71t-71 -29h-62v-30h61v-63z" />
    <glyph glyph-name="Egrave" unicode="&#xc8;" horiz-adv-x="387" 
d="M350 0h-300v700h300v-100h-200v-180h150v-100h-150v-220h200v-100zM295 798l-44 -44l-125 125l44 44z" />
    <glyph glyph-name="Eacute" unicode="&#xc9;" horiz-adv-x="387" 
d="M350 0h-300v700h300v-100h-200v-180h150v-100h-150v-220h200v-100zM285 879l-125 -125l-44 44l125 125z" />
    <glyph glyph-name="Ecircumflex" unicode="&#xca;" horiz-adv-x="387" 
d="M350 0h-300v700h300v-100h-200v-180h150v-100h-150v-220h200v-100zM325 798l-44 -44l-81 81l-81 -81l-44 44l125 125z" />
    <glyph glyph-name="Edieresis" unicode="&#xcb;" horiz-adv-x="387" 
d="M350 0h-300v700h300v-100h-200v-180h150v-100h-150v-220h200v-100zM340 838q0 -25 -17.5 -42.5t-42.5 -17.5t-42.5 17.5t-17.5 42.5t17.5 42.5t42.5 17.5t42.5 -17.5t17.5 -42.5zM180 838q0 -25 -17.5 -42.5t-42.5 -17.5t-42.5 17.5t-17.5 42.5t17.5 42.5t42.5 17.5
t42.5 -17.5t17.5 -42.5z" />
    <glyph glyph-name="Igrave" unicode="&#xcc;" horiz-adv-x="200" 
d="M150 0h-100v700h100v-700zM197 798l-44 -44l-125 125l44 44z" />
    <glyph glyph-name="Iacute" unicode="&#xcd;" horiz-adv-x="200" 
d="M150 0h-100v700h100v-700zM187 879l-125 -125l-44 44l125 125z" />
    <glyph glyph-name="Icircumflex" unicode="&#xce;" horiz-adv-x="200" 
d="M150 0h-100v700h100v-700zM227 798l-44 -44l-81 81l-81 -81l-44 44l125 125z" />
    <glyph glyph-name="Idieresis" unicode="&#xcf;" horiz-adv-x="200" 
d="M150 0h-100v700h100v-700zM242 838q0 -25 -17.5 -42.5t-42.5 -17.5t-42.5 17.5t-17.5 42.5t17.5 42.5t42.5 17.5t42.5 -17.5t17.5 -42.5zM82 838q0 -25 -17.5 -42.5t-42.5 -17.5t-42.5 17.5t-17.5 42.5t17.5 42.5t42.5 17.5t42.5 -17.5t17.5 -42.5z" />
    <glyph glyph-name="Eth" unicode="&#xd0;" 
d="M300 100v500h-150v-199h67v-62h-67v-239h150zM400 100q0 -42 -29 -71t-71 -29h-250v339h-66v62h66v299h250q42 0 71 -29t29 -71v-500z" />
    <glyph glyph-name="Ntilde" unicode="&#xd1;" 
d="M400 0h-88l-162 458v-458h-100v700h108l142 -412v412h100v-700zM83 828l54 54q18 18 44 18t44 -18l46 -45l54 54l43 -44l-54 -54q-18 -18 -44 -18t-44 18l-46 45l-53 -53z" />
    <glyph glyph-name="Ograve" unicode="&#xd2;" 
d="M400 100q0 -42 -29 -71t-71 -29h-150q-42 0 -71 29t-29 71v500q0 42 29 71t71 29h150q42 0 71 -29t29 -71v-500zM300 100v500h-150v-500h150zM320 798l-44 -44l-125 125l44 44z" />
    <glyph glyph-name="Oacute" unicode="&#xd3;" 
d="M400 100q0 -42 -29 -71t-71 -29h-150q-42 0 -71 29t-29 71v500q0 42 29 71t71 29h150q42 0 71 -29t29 -71v-500zM300 100v500h-150v-500h150zM310 879l-125 -125l-44 44l125 125z" />
    <glyph glyph-name="Ocircumflex" unicode="&#xd4;" 
d="M400 100q0 -42 -29 -71t-71 -29h-150q-42 0 -71 29t-29 71v500q0 42 29 71t71 29h150q42 0 71 -29t29 -71v-500zM300 100v500h-150v-500h150zM350 798l-44 -44l-81 81l-81 -81l-44 44l125 125z" />
    <glyph glyph-name="Otilde" unicode="&#xd5;" 
d="M400 100q0 -42 -29 -71t-71 -29h-150q-42 0 -71 29t-29 71v500q0 42 29 71t71 29h150q42 0 71 -29t29 -71v-500zM300 100v500h-150v-500h150zM83 828l54 54q18 18 44 18t44 -18l46 -45l54 54l43 -44l-54 -54q-18 -18 -44 -18t-44 18l-46 45l-53 -53z" />
    <glyph glyph-name="Odieresis" unicode="&#xd6;" 
d="M400 100q0 -42 -29 -71t-71 -29h-150q-42 0 -71 29t-29 71v500q0 42 29 71t71 29h150q42 0 71 -29t29 -71v-500zM300 100v500h-150v-500h150zM365 838q0 -25 -17.5 -42.5t-42.5 -17.5t-42.5 17.5t-17.5 42.5t17.5 42.5t42.5 17.5t42.5 -17.5t17.5 -42.5zM205 838
q0 -25 -17.5 -42.5t-42.5 -17.5t-42.5 17.5t-17.5 42.5t17.5 42.5t42.5 17.5t42.5 -17.5t17.5 -42.5z" />
    <glyph glyph-name="multiply" unicode="&#xd7;" horiz-adv-x="448" 
d="M399 347l-112 -112l109 -109l-64 -63l-108 109l-108 -108l-64 64l108 107l-110 110l63 64l111 -110l111 112z" />
    <glyph glyph-name="Oslash" unicode="&#xd8;" 
d="M415 774l-41 -107q26 -29 26 -67v-500q0 -42 -29 -71t-71 -29h-150q-18 0 -39 8l-33 -82h-44l42 107q-26 29 -26 67v500q0 42 29 71t71 29h150q18 0 39 -8l32 82h44zM302 600h-152v-388zM300 100v388l-153 -388h153z" />
    <glyph glyph-name="Ugrave" unicode="&#xd9;" 
d="M400 100q0 -42 -29 -71t-71 -29h-150q-42 0 -71 29t-29 71v600h100v-600h150v600h100v-600zM320 798l-44 -44l-125 125l44 44z" />
    <glyph glyph-name="Uacute" unicode="&#xda;" 
d="M400 100q0 -42 -29 -71t-71 -29h-150q-42 0 -71 29t-29 71v600h100v-600h150v600h100v-600zM310 879l-125 -125l-44 44l125 125z" />
    <glyph glyph-name="Ucircumflex" unicode="&#xdb;" 
d="M400 100q0 -42 -29 -71t-71 -29h-150q-42 0 -71 29t-29 71v600h100v-600h150v600h100v-600zM350 798l-44 -44l-81 81l-81 -81l-44 44l125 125z" />
    <glyph glyph-name="Udieresis" unicode="&#xdc;" 
d="M400 100q0 -42 -29 -71t-71 -29h-150q-42 0 -71 29t-29 71v600h100v-600h150v600h100v-600zM365 838q0 -25 -17.5 -42.5t-42.5 -17.5t-42.5 17.5t-17.5 42.5t17.5 42.5t42.5 17.5t42.5 -17.5t17.5 -42.5zM205 838q0 -25 -17.5 -42.5t-42.5 -17.5t-42.5 17.5t-17.5 42.5
t17.5 42.5t42.5 17.5t42.5 -17.5t17.5 -42.5z" />
    <glyph glyph-name="Yacute" unicode="&#xdd;" horiz-adv-x="400" 
d="M400 700l-151 -430v-270h-100v270l-149 430h110l90 -320l90 320h110zM285 879l-125 -125l-44 44l125 125z" />
    <glyph glyph-name="Thorn" unicode="&#xde;" horiz-adv-x="425" 
d="M400 242q0 -21 -8 -39.5t-21.5 -32t-31.5 -21t-39 -7.5h-150v-142h-100v700h100v-138h150q42 0 71 -29t29 -71v-220zM300 242v220h-150v-220h150z" />
    <glyph glyph-name="germandbls" unicode="&#xdf;" horiz-adv-x="400" 
d="M350 90q0 -18 -7 -34.5t-19 -29t-28.5 -19.5t-35.5 -7h-61v90h61v290h-61v90h61v140h-120v-610h-90v610q0 19 7 35.5t19.5 28.5t29 19t34.5 7h120q38 0 64 -26t26 -64v-108q0 -57 -50 -77q50 -18 50 -77v-258z" />
    <glyph glyph-name="agrave" unicode="&#xe0;" horiz-adv-x="390" 
d="M340 0h-90v38q-5 -19 -25 -28.5t-34 -9.5h-59q-18 0 -35 7t-29.5 19.5t-20 29t-7.5 34.5v110q0 42 26 66t64 24h61q48 0 59 -38v128h-176v90h176q38 0 64 -26t26 -64v-380zM250 90v110h-119v-110h119zM285 568l-44 -44l-125 125l44 44z" />
    <glyph glyph-name="aacute" unicode="&#xe1;" horiz-adv-x="390" 
d="M340 0h-90v38q-5 -19 -25 -28.5t-34 -9.5h-59q-18 0 -35 7t-29.5 19.5t-20 29t-7.5 34.5v110q0 42 26 66t64 24h61q48 0 59 -38v128h-176v90h176q38 0 64 -26t26 -64v-380zM250 90v110h-119v-110h119zM277 649l-125 -125l-44 44l125 125z" />
    <glyph glyph-name="acircumflex" unicode="&#xe2;" horiz-adv-x="390" 
d="M340 0h-90v38q-5 -19 -25 -28.5t-34 -9.5h-59q-18 0 -35 7t-29.5 19.5t-20 29t-7.5 34.5v110q0 42 26 66t64 24h61q48 0 59 -38v128h-176v90h176q38 0 64 -26t26 -64v-380zM250 90v110h-119v-110h119zM317 568l-44 -44l-81 81l-81 -81l-44 44l125 125z" />
    <glyph glyph-name="atilde" unicode="&#xe3;" horiz-adv-x="390" 
d="M340 0h-90v38q-5 -19 -25 -28.5t-34 -9.5h-59q-18 0 -35 7t-29.5 19.5t-20 29t-7.5 34.5v110q0 42 26 66t64 24h61q48 0 59 -38v128h-176v90h176q38 0 64 -26t26 -64v-380zM250 90v110h-119v-110h119zM50 598l54 54q18 18 44 18t44 -18l46 -45l54 54l43 -44l-54 -54
q-18 -18 -44 -18t-44 18l-46 45l-53 -53z" />
    <glyph glyph-name="adieresis" unicode="&#xe4;" horiz-adv-x="390" 
d="M340 0h-90v38q-5 -19 -25 -28.5t-34 -9.5h-59q-18 0 -35 7t-29.5 19.5t-20 29t-7.5 34.5v110q0 42 26 66t64 24h61q48 0 59 -38v128h-176v90h176q38 0 64 -26t26 -64v-380zM250 90v110h-119v-110h119zM332 608q0 -25 -17.5 -42.5t-42.5 -17.5t-42.5 17.5t-17.5 42.5
t17.5 42.5t42.5 17.5t42.5 -17.5t17.5 -42.5zM172 608q0 -25 -17.5 -42.5t-42.5 -17.5t-42.5 17.5t-17.5 42.5t17.5 42.5t42.5 17.5t42.5 -17.5t17.5 -42.5z" />
    <glyph glyph-name="aring" unicode="&#xe5;" horiz-adv-x="390" 
d="M340 0h-90v38q-5 -19 -25 -28.5t-34 -9.5h-59q-18 0 -35 7t-29.5 19.5t-20 29t-7.5 34.5v110q0 42 26 66t64 24h61q48 0 59 -38v128h-176v90h176q38 0 64 -26t26 -64v-380zM250 90v110h-119v-110h119zM276 597q0 -35 -24 -59.5t-59 -24.5t-59.5 24.5t-24.5 59.5t24.5 59
t59.5 24t59 -24t24 -59zM229 597q0 14 -11 24.5t-25 10.5t-24.5 -10.5t-10.5 -24.5t10.5 -25t24.5 -11t25 11t11 25z" />
    <glyph glyph-name="ae" unicode="&#xe6;" horiz-adv-x="600" 
d="M132 0q-18 0 -35 7t-29.5 19.5t-20 29t-7.5 34.5v110q0 42 26 66t64 24h61q48 0 59 -38v128h-176v90h161q52 0 60 -48q7 48 61 48h104q38 0 64 -26t26 -64v-200h-210v-90h177v-90h-161q-54 0 -61 48q-8 -48 -60 -48h-103zM460 270v110h-120v-110h120zM250 90v110h-119
v-110h119z" />
    <glyph glyph-name="ccedilla" unicode="&#xe7;" horiz-adv-x="400" 
d="M274 -93q0 -25 -18 -43.5t-43 -18.5h-87v62h86v28h-61v65h-11q-37 0 -63.5 26.5t-26.5 63.5v290q0 19 7 35.5t19.5 28.5t29 19t34.5 7h120q38 0 64 -26t26 -64v-90h-90v90h-120v-290h120v90h90v-90q0 -18 -7 -34.5t-19 -29t-28.5 -19.5t-35.5 -7h-47v-30h61v-63z" />
    <glyph glyph-name="egrave" unicode="&#xe8;" horiz-adv-x="400" 
d="M350 180h-210v-90h177v-90h-177q-37 0 -63.5 26.5t-26.5 63.5v290q0 19 7 35.5t19.5 28.5t29 19t34.5 7h120q38 0 64 -26t26 -64v-200zM260 270v110h-120v-110h120zM295 568l-44 -44l-125 125l44 44z" />
    <glyph glyph-name="eacute" unicode="&#xe9;" horiz-adv-x="400" 
d="M350 180h-210v-90h177v-90h-177q-37 0 -63.5 26.5t-26.5 63.5v290q0 19 7 35.5t19.5 28.5t29 19t34.5 7h120q38 0 64 -26t26 -64v-200zM260 270v110h-120v-110h120zM285 649l-125 -125l-44 44l125 125z" />
    <glyph glyph-name="ecircumflex" unicode="&#xea;" horiz-adv-x="400" 
d="M350 180h-210v-90h177v-90h-177q-37 0 -63.5 26.5t-26.5 63.5v290q0 19 7 35.5t19.5 28.5t29 19t34.5 7h120q38 0 64 -26t26 -64v-200zM260 270v110h-120v-110h120zM325 568l-44 -44l-81 81l-81 -81l-44 44l125 125z" />
    <glyph glyph-name="edieresis" unicode="&#xeb;" horiz-adv-x="400" 
d="M350 180h-210v-90h177v-90h-177q-37 0 -63.5 26.5t-26.5 63.5v290q0 19 7 35.5t19.5 28.5t29 19t34.5 7h120q38 0 64 -26t26 -64v-200zM260 270v110h-120v-110h120zM340 608q0 -25 -17.5 -42.5t-42.5 -17.5t-42.5 17.5t-17.5 42.5t17.5 42.5t42.5 17.5t42.5 -17.5
t17.5 -42.5zM180 608q0 -25 -17.5 -42.5t-42.5 -17.5t-42.5 17.5t-17.5 42.5t17.5 42.5t42.5 17.5t42.5 -17.5t17.5 -42.5z" />
    <glyph glyph-name="igrave" unicode="&#xec;" horiz-adv-x="190" 
d="M140 0h-90v470h90v-470zM192 568l-44 -44l-125 125l44 44z" />
    <glyph glyph-name="iacute" unicode="&#xed;" horiz-adv-x="190" 
d="M140 0h-90v470h90v-470zM182 649l-125 -125l-44 44l125 125z" />
    <glyph glyph-name="icircumflex" unicode="&#xee;" horiz-adv-x="190" 
d="M140 0h-90v470h90v-470zM222 568l-44 -44l-81 81l-81 -81l-44 44l125 125z" />
    <glyph glyph-name="idieresis" unicode="&#xef;" horiz-adv-x="190" 
d="M140 0h-90v470h90v-470zM237 608q0 -25 -17.5 -42.5t-42.5 -17.5t-42.5 17.5t-17.5 42.5t17.5 42.5t42.5 17.5t42.5 -17.5t17.5 -42.5zM77 608q0 -25 -17.5 -42.5t-42.5 -17.5t-42.5 17.5t-17.5 42.5t17.5 42.5t42.5 17.5t42.5 -17.5t17.5 -42.5z" />
    <glyph glyph-name="eth" unicode="&#xf0;" horiz-adv-x="400" 
d="M260 90v290h-120v-290h120zM342 600l-54 -25l35 -73q16 -32 21.5 -62t5.5 -60v-290q0 -18 -7 -34.5t-19 -29t-28.5 -19.5t-35.5 -7h-120q-37 0 -63.5 26.5t-26.5 63.5v290q0 19 7 35.5t19.5 28.5t29 19t34.5 7h54q36 0 53 -20l-40 87l-56 -26l-38 82l55 26l-38 81h99
l20 -44l55 26z" />
    <glyph glyph-name="ntilde" unicode="&#xf1;" horiz-adv-x="400" 
d="M350 0h-90v380h-120v-380h-90v470h90v-46q16 46 72 46h48q38 0 64 -26t26 -64v-380zM58 598l54 54q18 18 44 18t44 -18l46 -45l54 54l43 -44l-54 -54q-18 -18 -44 -18t-44 18l-46 45l-53 -53z" />
    <glyph glyph-name="ograve" unicode="&#xf2;" horiz-adv-x="400" 
d="M350 90q0 -18 -7 -34.5t-19 -29t-28.5 -19.5t-35.5 -7h-120q-37 0 -63.5 26.5t-26.5 63.5v290q0 19 7 35.5t19.5 28.5t29 19t34.5 7h120q38 0 64 -26t26 -64v-290zM260 90v290h-120v-290h120zM295 568l-44 -44l-125 125l44 44z" />
    <glyph glyph-name="oacute" unicode="&#xf3;" horiz-adv-x="400" 
d="M350 90q0 -18 -7 -34.5t-19 -29t-28.5 -19.5t-35.5 -7h-120q-37 0 -63.5 26.5t-26.5 63.5v290q0 19 7 35.5t19.5 28.5t29 19t34.5 7h120q38 0 64 -26t26 -64v-290zM260 90v290h-120v-290h120zM285 649l-125 -125l-44 44l125 125z" />
    <glyph glyph-name="ocircumflex" unicode="&#xf4;" horiz-adv-x="400" 
d="M350 90q0 -18 -7 -34.5t-19 -29t-28.5 -19.5t-35.5 -7h-120q-37 0 -63.5 26.5t-26.5 63.5v290q0 19 7 35.5t19.5 28.5t29 19t34.5 7h120q38 0 64 -26t26 -64v-290zM260 90v290h-120v-290h120zM325 568l-44 -44l-81 81l-81 -81l-44 44l125 125z" />
    <glyph glyph-name="otilde" unicode="&#xf5;" horiz-adv-x="400" 
d="M350 90q0 -18 -7 -34.5t-19 -29t-28.5 -19.5t-35.5 -7h-120q-37 0 -63.5 26.5t-26.5 63.5v290q0 19 7 35.5t19.5 28.5t29 19t34.5 7h120q38 0 64 -26t26 -64v-290zM260 90v290h-120v-290h120zM58 598l54 54q18 18 44 18t44 -18l46 -45l54 54l43 -44l-54 -54
q-18 -18 -44 -18t-44 18l-46 45l-53 -53z" />
    <glyph glyph-name="odieresis" unicode="&#xf6;" horiz-adv-x="400" 
d="M350 90q0 -18 -7 -34.5t-19 -29t-28.5 -19.5t-35.5 -7h-120q-37 0 -63.5 26.5t-26.5 63.5v290q0 19 7 35.5t19.5 28.5t29 19t34.5 7h120q38 0 64 -26t26 -64v-290zM260 90v290h-120v-290h120zM340 608q0 -25 -17.5 -42.5t-42.5 -17.5t-42.5 17.5t-17.5 42.5t17.5 42.5
t42.5 17.5t42.5 -17.5t17.5 -42.5zM180 608q0 -25 -17.5 -42.5t-42.5 -17.5t-42.5 17.5t-17.5 42.5t17.5 42.5t42.5 17.5t42.5 -17.5t17.5 -42.5z" />
    <glyph glyph-name="divide" unicode="&#xf7;" horiz-adv-x="448" 
d="M281 405q0 -25 -17.5 -42.5t-42.5 -17.5t-42.5 17.5t-17.5 42.5t17.5 42.5t42.5 17.5t42.5 -17.5t17.5 -42.5zM281 65q0 -25 -17.5 -42.5t-42.5 -17.5t-42.5 17.5t-17.5 42.5t17.5 42.5t42.5 17.5t42.5 -17.5t17.5 -42.5zM24 190v90h400v-90h-400z" />
    <glyph glyph-name="oslash" unicode="&#xf8;" horiz-adv-x="400" 
d="M386 523l-52 -91q16 -23 16 -52v-290q0 -37 -26.5 -63.5t-63.5 -26.5h-120q-22 0 -46 12l-36 -65h-43l52 91q-17 23 -17 52v290q0 37 26.5 63.5t63.5 26.5h120q23 0 46 -12l37 65h43zM262 380h-122v-217zM260 90v217l-121 -217h121z" />
    <glyph glyph-name="ugrave" unicode="&#xf9;" horiz-adv-x="400" 
d="M350 0h-90v46q-16 -46 -72 -46h-48q-37 0 -63.5 26.5t-26.5 63.5v380h90v-380h120v380h90v-470zM295 568l-44 -44l-125 125l44 44z" />
    <glyph glyph-name="uacute" unicode="&#xfa;" horiz-adv-x="400" 
d="M350 0h-90v46q-16 -46 -72 -46h-48q-37 0 -63.5 26.5t-26.5 63.5v380h90v-380h120v380h90v-470zM285 649l-125 -125l-44 44l125 125z" />
    <glyph glyph-name="ucircumflex" unicode="&#xfb;" horiz-adv-x="400" 
d="M350 0h-90v46q-16 -46 -72 -46h-48q-37 0 -63.5 26.5t-26.5 63.5v380h90v-380h120v380h90v-470zM325 568l-44 -44l-81 81l-81 -81l-44 44l125 125z" />
    <glyph glyph-name="udieresis" unicode="&#xfc;" horiz-adv-x="400" 
d="M350 0h-90v46q-16 -46 -72 -46h-48q-37 0 -63.5 26.5t-26.5 63.5v380h90v-380h120v380h90v-470zM340 608q0 -25 -17.5 -42.5t-42.5 -17.5t-42.5 17.5t-17.5 42.5t17.5 42.5t42.5 17.5t42.5 -17.5t17.5 -42.5zM180 608q0 -25 -17.5 -42.5t-42.5 -17.5t-42.5 17.5
t-17.5 42.5t17.5 42.5t42.5 17.5t42.5 -17.5t17.5 -42.5z" />
    <glyph glyph-name="yacute" unicode="&#xfd;" horiz-adv-x="376" 
d="M364 470l-174 -620h-96l46 150l-128 470h96l80 -336l80 336h96zM275 649l-125 -125l-44 44l125 125z" />
    <glyph glyph-name="thorn" unicode="&#xfe;" horiz-adv-x="400" 
d="M350 90q0 -37 -26.5 -63.5t-63.5 -26.5h-48q-56 0 -72 46v-196h-90v850h90v-276q16 46 72 46h48q37 0 63.5 -26.5t26.5 -63.5v-290zM260 90v290h-120v-290h120z" />
    <glyph glyph-name="ydieresis" unicode="&#xff;" horiz-adv-x="376" 
d="M364 470l-174 -620h-96l46 150l-128 470h96l80 -336l80 336h96zM330 608q0 -25 -17.5 -42.5t-42.5 -17.5t-42.5 17.5t-17.5 42.5t17.5 42.5t42.5 17.5t42.5 -17.5t17.5 -42.5zM170 608q0 -25 -17.5 -42.5t-42.5 -17.5t-42.5 17.5t-17.5 42.5t17.5 42.5t42.5 17.5
t42.5 -17.5t17.5 -42.5z" />
    <glyph glyph-name="dotlessi" unicode="&#x131;" horiz-adv-x="190" 
d="M140 0h-90v470h90v-470z" />
    <glyph glyph-name="OE" unicode="&#x152;" horiz-adv-x="625" 
d="M600 0h-251v54q-4 -22 -20 -38t-41 -16h-138q-42 0 -71 29t-29 71v500q0 42 29 71t71 29h138q25 0 41 -16t20 -38v54h251v-100h-200v-180h150v-100h-150v-220h200v-100zM300 100v500h-150v-500h150z" />
    <glyph glyph-name="oe" unicode="&#x153;" horiz-adv-x="610" 
d="M260 380h-120v-290h120v290zM470 380h-120v-110h120v110zM245 470q27 0 42.5 -12t18.5 -29q3 17 18 29t42 12h104q38 0 64 -26t26 -64v-200h-210v-90h177v-90h-161q-27 0 -42.5 12t-18.5 29q-3 -17 -18 -29t-42 -12h-105q-38 0 -64 26t-26 64v290q0 38 26 64t64 26h105z
" />
    <glyph glyph-name="Scaron" unicode="&#x160;" 
d="M352 309q48 -47 48 -106v-103q0 -42 -29 -71t-71 -29h-150q-42 0 -71 29t-29 71v100h100v-100h150v116l-202 201q-48 47 -48 106v77q0 42 29 71t71 29h150q42 0 71 -29t29 -71v-100h-100v100h-150v-90zM225 754l-125 125l44 44l81 -81l81 81l44 -44z" />
    <glyph glyph-name="scaron" unicode="&#x161;" horiz-adv-x="400" 
d="M350 90q0 -18 -7 -34.5t-19 -29t-28.5 -19.5t-35.5 -7h-120q-37 0 -63.5 26.5t-26.5 63.5v70h90v-70h120v70l-140 66q-70 33 -70 90v64q0 19 7 35.5t19.5 28.5t29 19t34.5 7h120q38 0 64 -26t26 -64v-70h-90v70h-120v-60l128 -60q82 -37 82 -92v-78zM200 524l-125 125
l44 44l81 -81l81 81l44 -44z" />
    <glyph glyph-name="Ydieresis" unicode="&#x178;" horiz-adv-x="400" 
d="M400 700l-151 -430v-270h-100v270l-149 430h110l90 -320l90 320h110zM340 838q0 -25 -17.5 -42.5t-42.5 -17.5t-42.5 17.5t-17.5 42.5t17.5 42.5t42.5 17.5t42.5 -17.5t17.5 -42.5zM180 838q0 -25 -17.5 -42.5t-42.5 -17.5t-42.5 17.5t-17.5 42.5t17.5 42.5t42.5 17.5
t42.5 -17.5t17.5 -42.5z" />
    <glyph glyph-name="Zcaron" unicode="&#x17d;" horiz-adv-x="432" 
d="M395 0h-358v100l236 500h-228v100h342v-100l-236 -500h244v-100zM216 754l-125 125l44 44l81 -81l81 81l44 -44z" />
    <glyph glyph-name="zcaron" unicode="&#x17e;" horiz-adv-x="350" 
d="M325 0h-300v90l184 290h-176v90h286v-90l-184 -290h190v-90zM177 524l-125 125l44 44l81 -81l81 81l44 -44z" />
    <glyph glyph-name="florin" unicode="&#x192;" horiz-adv-x="311" 
d="M286 310h-91v-370q0 -38 -26 -64t-64 -26h-90v90h90v370h-89v90h89v210q0 19 7 35.5t19.5 28.5t29 19t34.5 7h91v-90h-91v-210h91v-90z" />
    <glyph glyph-name="circumflex" unicode="&#x2c6;" horiz-adv-x="400" 
d="M325 568l-44 -44l-81 81l-81 -81l-44 44l125 125z" />
    <glyph glyph-name="caron" unicode="&#x2c7;" horiz-adv-x="400" 
d="M200 524l-125 125l44 44l81 -81l81 81l44 -44z" />
    <glyph glyph-name="ring" unicode="&#x2da;" horiz-adv-x="400" 
d="M283 597q0 -35 -24 -59.5t-59 -24.5t-59.5 24.5t-24.5 59.5t24.5 59t59.5 24t59 -24t24 -59zM236 597q0 14 -11 24.5t-25 10.5t-24.5 -10.5t-10.5 -24.5t10.5 -25t24.5 -11t25 11t11 25z" />
    <glyph glyph-name="tilde" unicode="&#x2dc;" horiz-adv-x="400" 
d="M58 598l54 54q18 18 44 18t44 -18l46 -45l54 54l43 -44l-54 -54q-18 -18 -44 -18t-44 18l-46 45l-53 -53z" />
    <glyph glyph-name="endash" unicode="&#x2013;" 
d="M425 190h-400v90h400v-90z" />
    <glyph glyph-name="emdash" unicode="&#x2014;" horiz-adv-x="654" 
d="M629 190h-604v90h604v-90z" />
    <glyph glyph-name="quoteleft" unicode="&#x2018;" horiz-adv-x="200" 
d="M152 549q0 -25 -17.5 -42.5t-42.5 -17.5q-24 0 -42 17t-18 41q0 12 8 30l56 122h48l-30 -96q36 -13 38 -54z" />
    <glyph glyph-name="quoteright" unicode="&#x2019;" horiz-adv-x="200" 
d="M160 652q0 -12 -8 -30l-56 -122h-48l30 96q-38 14 -38 54q0 25 17.5 42.5t42.5 17.5q24 0 42 -17t18 -41z" />
    <glyph glyph-name="quotesinglbase" unicode="&#x201a;" horiz-adv-x="200" 
d="M160 52q0 -12 -8 -30l-56 -122h-48l30 96q-38 14 -38 54q0 25 17.5 42.5t42.5 17.5q24 0 42 -17t18 -41z" />
    <glyph glyph-name="quotedblleft" unicode="&#x201c;" horiz-adv-x="351" 
d="M315 549q0 -25 -17.5 -42.5t-42.5 -17.5q-24 0 -42 17t-18 41q0 12 8 30l56 122h48l-30 -96q36 -13 38 -54zM156 549q0 -25 -17.5 -42.5t-42.5 -17.5q-24 0 -42 17t-18 41q0 12 8 30l56 122h48l-30 -96q36 -13 38 -54z" />
    <glyph glyph-name="quotedblright" unicode="&#x201d;" horiz-adv-x="346" 
d="M310 652q0 -12 -8 -30l-56 -122h-48l30 96q-38 14 -38 54q0 25 17.5 42.5t42.5 17.5q24 0 42 -17t18 -41zM156 652q0 -12 -8 -30l-56 -122h-48l30 96q-38 14 -38 54q0 25 17.5 42.5t42.5 17.5q24 0 42 -17t18 -41z" />
    <glyph glyph-name="quotedblbase" unicode="&#x201e;" horiz-adv-x="354" 
d="M314 52q0 -12 -8 -30l-56 -122h-48l30 96q-38 14 -38 54q0 25 17.5 42.5t42.5 17.5q24 0 42 -17t18 -41zM160 52q0 -12 -8 -30l-56 -122h-48l30 96q-38 14 -38 54q0 25 17.5 42.5t42.5 17.5q24 0 42 -17t18 -41z" />
    <glyph glyph-name="dagger" unicode="&#x2020;" horiz-adv-x="348" 
d="M323 519h-117v-319h-64v319h-117v64h117v117h64v-117h117v-64z" />
    <glyph glyph-name="daggerdbl" unicode="&#x2021;" horiz-adv-x="348" 
d="M323 317h-117v-117h-64v117h-117v64h117v138h-117v64h117v117h64v-117h117v-64h-117v-138h117v-64z" />
    <glyph glyph-name="bullet" unicode="&#x2022;" horiz-adv-x="393" 
d="M353 235q0 -33 -12.5 -61.5t-33.5 -49.5t-49.5 -33.5t-61.5 -12.5q-32 0 -60.5 12.5t-49.5 33.5t-33.5 49.5t-12.5 61.5t12.5 61.5t33.5 49.5t49.5 33.5t60.5 12.5q33 0 61.5 -12.5t49.5 -33.5t33.5 -49.5t12.5 -61.5z" />
    <glyph glyph-name="ellipsis" unicode="&#x2026;" horiz-adv-x="600" 
d="M560 50q0 -25 -17.5 -42.5t-42.5 -17.5t-42.5 17.5t-17.5 42.5t17.5 42.5t42.5 17.5t42.5 -17.5t17.5 -42.5zM360 50q0 -25 -17.5 -42.5t-42.5 -17.5t-42.5 17.5t-17.5 42.5t17.5 42.5t42.5 17.5t42.5 -17.5t17.5 -42.5zM160 50q0 -25 -17.5 -42.5t-42.5 -17.5
t-42.5 17.5t-17.5 42.5t17.5 42.5t42.5 17.5t42.5 -17.5t17.5 -42.5z" />
    <glyph glyph-name="perthousand" unicode="&#x2030;" horiz-adv-x="923" 
d="M873 67q0 -28 -19.5 -47.5t-47.5 -19.5h-90q-28 0 -47.5 19.5t-19.5 47.5v217q0 28 19.5 47.5t47.5 19.5h90q28 0 47.5 -19.5t19.5 -47.5v-217zM806 67v217h-90v-217h90zM275 416q0 -28 -19.5 -47.5t-48.5 -19.5h-89q-29 0 -48.5 19.5t-19.5 47.5v217q0 28 20 47.5
t48 19.5h89q28 0 48 -19.5t20 -47.5v-217zM473 700l-232 -700h-64l232 700h64zM599 67q0 -28 -19.5 -47.5t-47.5 -19.5h-90q-28 0 -47.5 19.5t-19.5 47.5v217q0 28 19.5 47.5t47.5 19.5h90q28 0 47.5 -19.5t19.5 -47.5v-217zM207 416v217h-89v-217h89zM532 67v217h-90v-217
h90z" />
    <glyph glyph-name="guilsinglleft" unicode="&#x2039;" horiz-adv-x="219" 
d="M194 166l-44 -44l-125 125l125 125l44 -44l-81 -81z" />
    <glyph glyph-name="guilsinglright" unicode="&#x203a;" horiz-adv-x="219" 
d="M194 247l-125 -125l-44 44l81 81l-81 81l44 44z" />
    <glyph glyph-name="fraction" unicode="&#x2044;" horiz-adv-x="96" 
d="M196 700l-232 -700h-64l232 700h64z" />
    <glyph glyph-name="Euro" unicode="&#x20ac;" horiz-adv-x="475" 
d="M425 100q0 -42 -29 -71t-71 -29h-150q-42 0 -71 29t-29 71v125h-50v100h50v46h-50v100h50v129q0 42 29 71t71 29h150q42 0 71 -29t29 -71v-100h-100v100h-150v-129h137v-100h-137v-46h137v-100h-137v-125h150v100h100v-100z" />
    <glyph glyph-name="trademark" unicode="&#x2122;" horiz-adv-x="443" 
d="M393 420h-40v178l-48 -178h-12l-48 178v-178h-40v280h51l43 -165l43 165h51v-280zM165 660h-50v-240h-40v240h-50v40h140v-40z" />
    <glyph glyph-name="glyph206" horiz-adv-x="310" 
d="M195 309v41h-80v-49h-70v59q0 25 17.5 42.5t42.5 17.5h100q25 0 42.5 -17.5t17.5 -42.5v-51q0 -16 -4 -26.5t-12 -20.5l-134 -172v-20h150v-70h-220v90q0 16 4 26.5t12 20.5z" />
    <glyph glyph-name="glyph207" horiz-adv-x="301" 
d="M268 85h-30v-85h-70v85h-135v70l133 265h72v-265h30v-70zM168 155v140l-66 -140h66z" />
    <glyph glyph-name="glyph225" horiz-adv-x="0" 
 />
  </font>
</defs>
</svg>
